<svg aria-hidden="true" style="position: absolute; width: 32; height:32; overflow: hidden;" version="1.1" xmlns="http://www.w3.org/2000/svg" xmlns:xlink="http://www.w3.org/1999/xlink">
<defs>

<symbol id="icon-feedBack" viewBox="0 0 32 32">
<path fill="#314385" style="fill: var(--color1, #314385)" d="M20.286 16c-0.149 0-0.309-0.023-0.457-0.069-0.284-0.096-0.531-0.279-0.705-0.523s-0.267-0.537-0.266-0.837v-2.011c-1.6-0.149-2.857-1.497-2.857-3.131v-4c0-1.737 1.406-3.143 3.143-3.143h7.429c1.737 0 3.143 1.406 3.143 3.143v4c0 1.737-1.406 3.143-3.143 3.143h-2.994l-2.149 2.857c-0.274 0.366-0.697 0.571-1.143 0.571zM19.143 4c-0.789 0-1.429 0.64-1.429 1.429v4c0 0.789 0.64 1.429 1.429 1.429h1.429v2.857l2.148-2.857h3.863c0.789 0 1.429-0.64 1.429-1.429v-4c0-0.789-0.64-1.429-1.429-1.429h-7.44zM10.857 18.858c-1.287-0.003-2.521-0.516-3.431-1.426s-1.423-2.144-1.426-3.431c0.003-1.287 0.516-2.521 1.426-3.431s2.144-1.423 3.431-1.426c1.287 0.003 2.521 0.516 3.431 1.426s1.423 2.144 1.426 3.431c-0.003 1.287-0.516 2.521-1.426 3.431s-2.144 1.423-3.431 1.426zM10.857 10.858c-1.737 0-3.143 1.406-3.143 3.143s1.406 3.143 3.143 3.143c1.737 0 3.143-1.406 3.143-3.143s-1.406-3.143-3.143-3.143zM3.967 27.338c1.497 1.577 3.817 2.377 6.891 2.377s5.394-0.8 6.892-2.377c1.739-1.84 1.683-4.061 1.68-4.21v-0.007c0-1.406-1.143-2.549-2.549-2.549h-12.046c-1.406 0-2.549 1.143-2.549 2.503v0.015c-0.005 0.217-0.048 2.419 1.68 4.248zM4.001 23.12c0-0.457 0.377-0.834 0.834-0.834h12.046c0.457 0 0.834 0.377 0.834 0.88v0.002c-0.024 1.112-0.455 2.176-1.211 2.992-1.154 1.223-3.074 1.84-5.646 1.84s-4.457-0.606-5.623-1.817c-0.787-0.821-1.228-1.913-1.234-3.050v-0.013z"></path>
</symbol>
<symbol id="icon-blog" viewBox="0 0 32 32">
<path fill="#314385" style="fill: var(--color1, #314385)" d="M4 24h10v2h-10v-2zM4 18h10v2h-10v-2zM26 14h-20c-0.53 0-1.039-0.211-1.414-0.586s-0.586-0.884-0.586-1.414v-6c0-0.53 0.211-1.039 0.586-1.414s0.884-0.586 1.414-0.586h20c0.53 0 1.039 0.211 1.414 0.586s0.586 0.884 0.586 1.414v6c0 0.53-0.211 1.039-0.586 1.414s-0.884 0.586-1.414 0.586zM6 6v6h20v-6h-20zM26 28h-6c-0.53 0-1.039-0.211-1.414-0.586s-0.586-0.884-0.586-1.414v-6c0-0.53 0.211-1.039 0.586-1.414s0.884-0.586 1.414-0.586h6c0.53 0 1.039 0.211 1.414 0.586s0.586 0.884 0.586 1.414v6c0 0.53-0.211 1.039-0.586 1.414s-0.884 0.586-1.414 0.586zM20 20v6h6v-6h-6z"></path>
</symbol>
<symbol id="icon-edit" viewBox="0 0 32 32">
<path fill="#314385" style="fill: var(--color1, #314385)" d="M24.2 3.264c0.421-0.174 0.872-0.264 1.328-0.264s0.907 0.090 1.328 0.264c0.421 0.174 0.804 0.43 1.126 0.752s0.578 0.705 0.752 1.126 0.264 0.872 0.264 1.328c0 0.456-0.090 0.907-0.264 1.328s-0.43 0.804-0.752 1.126l-7.636 7.636c-0.534 0.534-1.214 0.898-1.954 1.046 0 0 0 0 0 0l-3.531 0.707c-0.328 0.066-0.667-0.037-0.903-0.273s-0.339-0.575-0.274-0.903l0.705-3.531c0.149-0.74 0.513-1.421 1.047-1.954-0 0 0 0 0 0l7.636-7.636c0.322-0.322 0.705-0.578 1.126-0.752zM25.529 5c-0.193 0-0.384 0.038-0.563 0.112s-0.341 0.182-0.477 0.319l-1.444 1.444 2.081 2.080 1.444-1.444c0.137-0.137 0.245-0.299 0.319-0.477s0.112-0.37 0.112-0.563-0.038-0.384-0.112-0.563c-0.074-0.178-0.182-0.341-0.319-0.477s-0.299-0.245-0.477-0.319-0.37-0.112-0.563-0.112zM23.711 10.369l-2.081-2.080-4.778 4.778c-0.255 0.254-0.429 0.579-0.5 0.932 0 0 0-0 0 0l-0.411 2.059 2.060-0.412c0.353-0.071 0.677-0.244 0.932-0.499l4.778-4.778z"></path>
<path fill="#314385" style="fill: var(--color1, #314385)" d="M8 7.666c-0.442 0-0.866 0.176-1.178 0.488s-0.488 0.736-0.488 1.178v14.667c0 0.442 0.176 0.866 0.488 1.179s0.736 0.488 1.178 0.488h14.667c0.442 0 0.866-0.176 1.178-0.488s0.488-0.736 0.488-1.179v-4c0-0.552 0.448-1 1-1s1 0.448 1 1v4c0 0.973-0.386 1.905-1.074 2.593s-1.62 1.074-2.593 1.074h-14.667c-0.972 0-1.905-0.386-2.593-1.074s-1.074-1.62-1.074-2.593v-14.667c0-0.972 0.386-1.905 1.074-2.593s1.62-1.074 2.593-1.074h4c0.552 0 1 0.448 1 1s-0.448 1-1 1h-4z"></path>
</symbol>
<symbol id="icon-delete" viewBox="0 0 32 32">
<path fill="#e0e6fb" style="fill: var(--color1, #e0e6fb)" d="M13.5 6.5v0.5h5v-0.5c0-0.663-0.263-1.299-0.732-1.768s-1.105-0.732-1.768-0.732-1.299 0.263-1.768 0.732c-0.469 0.469-0.732 1.105-0.732 1.768zM11.5 7v-0.5c0-1.193 0.474-2.338 1.318-3.182s1.989-1.318 3.182-1.318c1.193 0 2.338 0.474 3.182 1.318s1.318 1.989 1.318 3.182v0.5h7.5c0.265 0 0.52 0.105 0.707 0.293s0.293 0.442 0.293 0.707c0 0.265-0.105 0.52-0.293 0.707s-0.442 0.293-0.707 0.293h-1.508l-1.892 16.568c-0.14 1.22-0.723 2.346-1.64 3.164s-2.102 1.269-3.33 1.268h-7.26c-1.228 0.001-2.414-0.451-3.33-1.268s-1.5-1.944-1.64-3.164l-1.892-16.568h-1.508c-0.265 0-0.52-0.105-0.707-0.293s-0.293-0.442-0.293-0.707c0-0.265 0.105-0.52 0.293-0.707s0.442-0.293 0.707-0.293h7.5zM9.388 25.34c0.084 0.732 0.433 1.408 0.983 1.898s1.26 0.762 1.997 0.762h7.263c0.737-0 1.448-0.271 1.997-0.762s0.899-1.166 0.983-1.898l1.869-16.34h-16.959l1.867 16.34zM13 12.5c0.265 0 0.52 0.105 0.707 0.293s0.293 0.442 0.293 0.707v10c0 0.265-0.105 0.52-0.293 0.707s-0.442 0.293-0.707 0.293c-0.265 0-0.52-0.105-0.707-0.293s-0.293-0.442-0.293-0.707v-10c0-0.265 0.105-0.52 0.293-0.707s0.442-0.293 0.707-0.293zM20 13.5c0-0.265-0.105-0.52-0.293-0.707s-0.442-0.293-0.707-0.293c-0.265 0-0.52 0.105-0.707 0.293s-0.293 0.442-0.293 0.707v10c0 0.265 0.105 0.52 0.293 0.707s0.442 0.293 0.707 0.293c0.265 0 0.52-0.105 0.707-0.293s0.293-0.442 0.293-0.707v-10z"></path>
</symbol>
<symbol id="icon-person" viewBox="0 0 32 32">
<path fill="#314385" style="fill: var(--color1, #314385)" d="M23 9c0 1.857-0.738 3.637-2.050 4.95s-3.093 2.050-4.95 2.050-3.637-0.738-4.95-2.050c-1.313-1.313-2.050-3.093-2.050-4.95s0.738-3.637 2.050-4.95c1.313-1.313 3.093-2.050 4.95-2.050s3.637 0.737 4.95 2.050c1.313 1.313 2.050 3.093 2.050 4.95zM21 9c0-1.326-0.527-2.598-1.465-3.536s-2.209-1.464-3.535-1.464-2.598 0.527-3.535 1.464c-0.938 0.938-1.464 2.209-1.464 3.536s0.527 2.598 1.464 3.535c0.938 0.938 2.209 1.464 3.535 1.464s2.598-0.527 3.535-1.464c0.938-0.938 1.465-2.209 1.465-3.535zM7.5 18c-0.928 0-1.819 0.369-2.475 1.025s-1.025 1.547-1.025 2.475v0.5c0 2.393 1.523 4.417 3.685 5.793 2.174 1.384 5.117 2.207 8.315 2.207s6.14-0.823 8.315-2.207c2.162-1.376 3.685-3.4 3.685-5.793v-0.5c0-0.928-0.369-1.819-1.025-2.475s-1.547-1.025-2.475-1.025h-17zM6 21.5c0-0.398 0.158-0.779 0.439-1.061s0.663-0.439 1.061-0.439h17c0.398 0 0.779 0.158 1.061 0.439s0.439 0.663 0.439 1.061v0.5c0 1.473-0.94 2.949-2.759 4.106-1.807 1.15-4.364 1.894-7.241 1.894s-5.434-0.744-7.241-1.894c-1.82-1.156-2.759-2.634-2.759-4.106v-0.5z"></path>
</symbol>
<symbol id="icon-qualification" viewBox="0 0 32 32">
<path fill="#314385" style="fill: var(--color1, #314385)" d="M10 21.332c-0.177 0-0.346 0.070-0.471 0.195s-0.195 0.295-0.195 0.471c0 0.177 0.070 0.346 0.195 0.471s0.295 0.195 0.471 0.195h12c0.177 0 0.346-0.070 0.471-0.195s0.195-0.295 0.195-0.471c0-0.177-0.070-0.346-0.195-0.471s-0.295-0.195-0.471-0.195h-12zM9.333 24.665c0-0.177 0.070-0.346 0.195-0.471s0.295-0.195 0.471-0.195h8c0.177 0 0.346 0.070 0.471 0.195s0.195 0.295 0.195 0.471-0.070 0.346-0.195 0.471c-0.125 0.125-0.295 0.195-0.471 0.195h-8c-0.177 0-0.346-0.070-0.471-0.195s-0.195-0.295-0.195-0.471z"></path>
<path fill="#314385" style="fill: var(--color1, #314385)" d="M13.949 10.41c-0.051-0.121-0.136-0.225-0.246-0.298s-0.238-0.112-0.37-0.112c-0.132 0-0.26 0.039-0.37 0.112s-0.195 0.177-0.246 0.298l-2.495 5.987c-0.004 0.009-0.008 0.019-0.011 0.028l-0.827 1.985c-0.068 0.163-0.069 0.347-0.001 0.51s0.197 0.294 0.36 0.362c0.163 0.068 0.347 0.069 0.51 0.001s0.294-0.197 0.362-0.36l0.663-1.59h4.111l0.663 1.59c0.068 0.163 0.198 0.293 0.362 0.36s0.347 0.067 0.51-0.001c0.163-0.068 0.293-0.198 0.36-0.362s0.067-0.347-0.001-0.51l-0.827-1.985c-0.003-0.009-0.007-0.019-0.011-0.028l-2.495-5.987zM13.333 12.4l1.5 3.6h-3l1.5-3.6z"></path>
<path fill="#314385" style="fill: var(--color1, #314385)" d="M20 14c0.177 0 0.346 0.070 0.471 0.195s0.195 0.295 0.195 0.471v1.333h1.333c0.177 0 0.346 0.070 0.471 0.195s0.195 0.295 0.195 0.471-0.070 0.346-0.195 0.471c-0.125 0.125-0.295 0.195-0.471 0.195h-1.333v1.333c0 0.177-0.070 0.346-0.195 0.471s-0.295 0.195-0.471 0.195-0.346-0.070-0.471-0.195c-0.125-0.125-0.195-0.295-0.195-0.471v-1.333h-1.333c-0.177 0-0.346-0.070-0.471-0.195s-0.195-0.295-0.195-0.471 0.070-0.346 0.195-0.471c0.125-0.125 0.295-0.195 0.471-0.195h1.333v-1.333c0-0.177 0.070-0.346 0.195-0.471s0.295-0.195 0.471-0.195z"></path>
<path fill="#314385" style="fill: var(--color1, #314385)" d="M25.333 9.999l-6.667-7.333h-9.333c-0.707 0-1.386 0.281-1.886 0.781s-0.781 1.178-0.781 1.886v21.333c0 0.707 0.281 1.386 0.781 1.886s1.178 0.781 1.886 0.781h13.333c0.707 0 1.386-0.281 1.886-0.781s0.781-1.178 0.781-1.886v-16.667zM18 9.999c0 0.177 0.070 0.346 0.195 0.471s0.295 0.195 0.471 0.195h5.333v16c0 0.354-0.14 0.693-0.391 0.943s-0.589 0.39-0.943 0.39h-13.333c-0.354 0-0.693-0.14-0.943-0.39s-0.391-0.589-0.391-0.943v-21.333c0-0.354 0.14-0.693 0.391-0.943s0.589-0.391 0.943-0.391h8.667v6zM22.925 9.333l-3.592-3.951v3.951h3.592z"></path>
</symbol>
<symbol id="icon-price" viewBox="0 0 32 32">
<path fill="none" stroke="#314385" style="stroke: var(--color1, #314385)" stroke-linejoin="round" stroke-linecap="round" stroke-miterlimit="4" stroke-width="1.5" d="M25.206 2h-7.683c-0.239-0-0.468 0.094-0.637 0.263l-15.36 15.356c-0.336 0.338-0.525 0.795-0.525 1.272s0.189 0.934 0.525 1.272l7.313 7.313c0.338 0.336 0.795 0.525 1.272 0.525s0.934-0.189 1.272-0.525l15.356-15.35c0.168-0.169 0.263-0.399 0.262-0.637v-7.688c0.001-0.236-0.044-0.47-0.134-0.689s-0.222-0.417-0.389-0.584c-0.167-0.167-0.365-0.3-0.583-0.39s-0.452-0.137-0.689-0.136z"></path>
<path fill="#314385" style="fill: var(--color1, #314385)" d="M22 9c-0.396 0-0.782-0.117-1.111-0.337s-0.585-0.532-0.737-0.898c-0.151-0.365-0.191-0.768-0.114-1.156s0.268-0.744 0.547-1.024 0.636-0.47 1.024-0.547c0.388-0.077 0.79-0.038 1.156 0.114s0.678 0.408 0.898 0.737c0.22 0.329 0.337 0.716 0.337 1.111 0 0.53-0.211 1.039-0.586 1.414s-0.884 0.586-1.414 0.586z"></path>
<path fill="none" stroke="#314385" style="stroke: var(--color1, #314385)" stroke-linejoin="round" stroke-linecap="round" stroke-miterlimit="4" stroke-width="1.5" d="M14.375 30l16.375-16.375c0.081-0.082 0.145-0.18 0.188-0.287s0.064-0.222 0.062-0.338v-8"></path>
</symbol>
<symbol id="icon-logo" viewBox="0 0 36 32">
<path fill="#a2b1e6" style="fill: var(--color3, #a2b1e6)" d="M4.138 0h27.586c2.285 0 4.138 1.853 4.138 4.138v23.724c0 2.285-1.853 4.138-4.138 4.138h-27.586c-2.285 0-4.138-1.853-4.138-4.138v-23.724c0-2.285 1.853-4.138 4.138-4.138z"></path>
<path fill="#fcfbfb" style="fill: var(--color4, #fcfbfb)" d="M15.643 6.977c-0.257 0.327-0.305 0.491-0.185 0.744s0.647 0.093 1.109 0.186c0.462 0.093 1.479 2.419 1.756 4.279s-0.092 0.837-0.092 0.837l-1.664-2.884-0.092 2.977-0.092 0.372-0.185 6.512h-1.294l-0.462-5.767-1.294 5.767h-1.294l1.017-6.512c-0.277-0.372 0.386-2.409 0.277-3.535 0 0-2.033 3.256-2.126 3.256h-0.361c-0.032 0.016-0.066 0.016-0.101 0h0.101c0.47-0.231 0.652-3.723 2.21-5.116 0.432-0.386 1.124-0.027 1.294-0.279s0.242-0.385 0.185-0.558l-0.185-0.279c-0.211-0.324-0.37-0.651-0.092-1.116 0.237-0.311 0.525-0.461 0.924-0.465 0.397 0.085 0.647 0.279 0.739 0.651 0.103 0.413 0.058 0.608-0.092 0.93z"></path>
<path fill="#fcfbfb" style="fill: var(--color4, #fcfbfb)" d="M4.644 15.629c0 0 1.492-2.405 2.311-2.325 0 0 0.277-0.279 0.092-0.372s-0.493-0.403-0.462-0.744c0.037-0.412 0.341-0.67 0.832-0.651 0.421 0.065 0.555 0.186 0.647 0.744s-0.591 0.506-0.555 0.651l0.092 0.372c0 0 0.092 0.186 0.924 0s2.291-0.232 2.311-0.093l-2.403 0.837-0.092 2.512 0.462 3.349h-0.647l-0.739-2.605-0.185 2.605h-0.647l-0.37-5.581c-0.587 0.648-1.571 1.302-1.571 1.302z"></path>
<path fill="#fcfbfb" style="fill: var(--color4, #fcfbfb)" d="M27.554 12.839c0.406-0.041-0.958 5.057-0.739 5.023l0.647 0.186v1.767h0.462l0.37-1.767h0.647l0.092 1.767h0.553l0.106-1.862 0.45-0.091c-0.161-1.738-0.229-2.715-0.277-4.465l1.202 1.302 0.183-0.002-1.477-2.789-0.554-0.093-0.185-0.372c0.342-0.323 0.471-0.524 0.554-0.93l0.185 0.093c0.059 1.147 0.436 1.304 1.109 1.581 0 0-0.74-1.86-0.924-1.953s-0.282 0-0.462 0c-0.178-0.277-0.38-0.531-0.739-0.558-0.484-0.037-0.923 0.558-0.924 0.837s-0.001 0.372 0.184 0.558 0.556 0.372 0.556 0.372c0 0.145-0.033 0.147-0.094 0.279-0.122 0.266-0.364 0.13-0.647 0.186-0.903 0.179-1.978 0.869-2.113 0.93 0.718 0 1.433 0.041 1.836 0z"></path>
<path fill="#fcfbfb" style="fill: var(--color4, #fcfbfb)" d="M21.559 8.093l-1.109-0.186c0.095-1.494 0.739-2.14 1.479-2.14s1.368 0.673 1.386 2.14l-0.924 0.186v0.279c0 0-0.277 0.132 0.092 0.132 2.178 0 3.365 4.199 3.235 4.426l-2.403-2.791 1.202 7.070h-0.924v2.698h-0.739l-0.37-2.698h-0.924l-0.37 2.698h-0.739v-2.698h-0.647l0.647-6.791-2.126 2.605c0.481-2.021 1.756-4.372 2.403-4.465s0.832-0.093 0.832-0.093v-0.372z"></path>
<path fill="#314385" style="fill: var(--color1, #314385)" d="M22.576 11.473c-0.277 0-0.417 0.12-0.555 0.279-0.138-0.159-0.277-0.279-0.555-0.279s-0.555 0.186-0.555 0.744c0 0.279 0.277 0.837 1.109 1.302 0.832-0.465 1.109-1.023 1.109-1.302 0-0.558-0.277-0.744-0.555-0.744z"></path>
<path fill="#fcfbfb" style="fill: var(--color4, #fcfbfb)" d="M5.837 25.61h1.195v0.285h-1.195v-0.285zM5.871 26.832h-0.331v-2.317h1.635v0.288h-1.304v2.029zM7.183 26.832l1.049-2.317h0.328l1.053 2.317h-0.348l-0.937-2.132h0.132l-0.937 2.132h-0.341zM7.63 26.253l0.089-0.265h1.304l0.096 0.265h-1.49zM9.959 26.832v-2.317h0.271l1.039 1.751h-0.146l1.026-1.751h0.271l0.003 2.317h-0.318l-0.003-1.817h0.076l-0.914 1.536h-0.152l-0.92-1.536h0.083v1.817h-0.318zM13.12 26.832v-2.317h0.331v2.317h-0.331zM14.145 26.832v-2.317h0.331v2.029h1.255v0.288h-1.586zM16.428 26.832v-0.887l0.076 0.205-0.996-1.635h0.354l0.838 1.38h-0.192l0.841-1.38h0.328l-0.993 1.635 0.073-0.205v0.887h-0.328zM19.937 26.858c-0.177 0-0.34-0.029-0.49-0.086-0.148-0.060-0.277-0.142-0.387-0.248-0.108-0.108-0.193-0.234-0.255-0.377s-0.093-0.301-0.093-0.473c0-0.172 0.031-0.33 0.093-0.473s0.148-0.268 0.258-0.374c0.11-0.108 0.239-0.191 0.387-0.248 0.15-0.060 0.313-0.089 0.49-0.089 0.179 0 0.343 0.031 0.493 0.093 0.152 0.060 0.281 0.149 0.387 0.268l-0.215 0.209c-0.088-0.093-0.188-0.161-0.298-0.205-0.11-0.046-0.228-0.070-0.354-0.070-0.13 0-0.252 0.022-0.364 0.066-0.11 0.044-0.206 0.106-0.288 0.185s-0.146 0.174-0.192 0.285c-0.044 0.108-0.066 0.226-0.066 0.354s0.022 0.247 0.066 0.358c0.046 0.108 0.11 0.202 0.192 0.281s0.178 0.141 0.288 0.185c0.113 0.044 0.234 0.066 0.364 0.066 0.126 0 0.244-0.022 0.354-0.066 0.11-0.046 0.21-0.117 0.298-0.212l0.215 0.209c-0.106 0.119-0.235 0.21-0.387 0.271-0.15 0.062-0.316 0.093-0.497 0.093zM22.29 26.858c-0.177 0-0.341-0.030-0.493-0.089-0.15-0.060-0.28-0.142-0.391-0.248-0.11-0.108-0.196-0.234-0.258-0.377s-0.093-0.3-0.093-0.47c0-0.17 0.031-0.327 0.093-0.47s0.148-0.268 0.258-0.374c0.11-0.108 0.241-0.192 0.391-0.252s0.314-0.089 0.493-0.089c0.177 0 0.339 0.030 0.487 0.089 0.15 0.057 0.28 0.14 0.391 0.248 0.113 0.106 0.199 0.231 0.258 0.374 0.062 0.143 0.093 0.301 0.093 0.473s-0.031 0.33-0.093 0.473c-0.060 0.143-0.146 0.269-0.258 0.377-0.11 0.106-0.241 0.189-0.391 0.248-0.148 0.057-0.31 0.086-0.487 0.086zM22.29 26.564c0.128 0 0.246-0.022 0.354-0.066 0.11-0.044 0.205-0.106 0.285-0.185 0.082-0.082 0.145-0.177 0.189-0.285 0.046-0.108 0.070-0.226 0.070-0.354s-0.023-0.246-0.070-0.354c-0.044-0.108-0.107-0.202-0.189-0.281-0.079-0.082-0.174-0.145-0.285-0.189-0.108-0.044-0.226-0.066-0.354-0.066-0.13 0-0.25 0.022-0.361 0.066-0.108 0.044-0.203 0.107-0.285 0.189-0.082 0.079-0.146 0.173-0.192 0.281-0.044 0.108-0.066 0.226-0.066 0.354s0.022 0.246 0.066 0.354c0.046 0.108 0.11 0.203 0.192 0.285 0.082 0.079 0.177 0.141 0.285 0.185 0.11 0.044 0.231 0.066 0.361 0.066zM23.641 26.832l1.049-2.317h0.328l1.053 2.317h-0.348l-0.937-2.132h0.132l-0.937 2.132h-0.341zM24.088 26.253l0.089-0.265h1.304l0.096 0.265h-1.49zM27.421 26.858c-0.177 0-0.34-0.029-0.49-0.086-0.148-0.060-0.277-0.142-0.387-0.248-0.108-0.108-0.193-0.234-0.255-0.377s-0.093-0.301-0.093-0.473c0-0.172 0.031-0.33 0.093-0.473s0.148-0.268 0.258-0.374c0.11-0.108 0.239-0.191 0.387-0.248 0.15-0.060 0.313-0.089 0.49-0.089 0.179 0 0.343 0.031 0.493 0.093 0.152 0.060 0.281 0.149 0.387 0.268l-0.215 0.209c-0.088-0.093-0.188-0.161-0.298-0.205-0.11-0.046-0.228-0.070-0.354-0.070-0.13 0-0.252 0.022-0.364 0.066-0.11 0.044-0.206 0.106-0.288 0.185s-0.146 0.174-0.192 0.285c-0.044 0.108-0.066 0.226-0.066 0.354s0.022 0.247 0.066 0.358c0.046 0.108 0.11 0.202 0.192 0.281s0.178 0.141 0.288 0.185c0.113 0.044 0.234 0.066 0.364 0.066 0.126 0 0.244-0.022 0.354-0.066 0.11-0.046 0.21-0.117 0.298-0.212l0.215 0.209c-0.106 0.119-0.235 0.21-0.387 0.271-0.15 0.062-0.316 0.093-0.496 0.093zM30.438 24.515h0.331v2.317h-0.331v-2.317zM29.108 26.832h-0.331v-2.317h0.331v2.317zM30.468 25.799h-1.394v-0.288h1.394v0.288z"></path>
</symbol>
<symbol id="icon-logout" viewBox="0 0 32 32">
<path fill="#314385" style="fill: var(--color1, #314385)" d="M16 4c0.34 0 0.667 0.13 0.914 0.364s0.396 0.552 0.416 0.891c0.020 0.339-0.091 0.673-0.309 0.934s-0.527 0.428-0.865 0.468l-0.156 0.009h-6.667c-0.327 0-0.642 0.12-0.886 0.337s-0.4 0.516-0.438 0.84l-0.009 0.156v16c0 0.327 0.12 0.642 0.337 0.886s0.516 0.4 0.84 0.438l0.156 0.009h6c0.34 0 0.667 0.131 0.914 0.364s0.396 0.552 0.416 0.891c0.020 0.339-0.091 0.673-0.309 0.934s-0.527 0.428-0.865 0.468l-0.156 0.009h-6c-1.020 0-2.002-0.39-2.744-1.090s-1.189-1.657-1.249-2.676l-0.007-0.235v-16c-0-1.020 0.39-2.002 1.090-2.744s1.657-1.189 2.676-1.249l0.235-0.007h6.667zM23.609 11.285l3.771 3.772c0.25 0.25 0.39 0.589 0.39 0.943s-0.14 0.693-0.39 0.943l-3.771 3.772c-0.25 0.25-0.589 0.39-0.943 0.39s-0.693-0.141-0.943-0.391-0.39-0.589-0.39-0.943c0-0.354 0.141-0.693 0.391-0.943l1.495-1.495h-7.219c-0.354 0-0.693-0.141-0.943-0.391s-0.391-0.589-0.391-0.943c0-0.354 0.141-0.693 0.391-0.943s0.589-0.391 0.943-0.391h7.219l-1.495-1.495c-0.25-0.25-0.391-0.589-0.391-0.943s0.14-0.693 0.39-0.943c0.25-0.25 0.589-0.391 0.943-0.391s0.693 0.14 0.943 0.39z"></path>
</symbol>
<symbol id="icon-dot" viewBox="0 0 32 32">
<path fill="#314385" style="fill: var(--color1, #314385)" d="M16 9.333c3.682 0 6.667 2.985 6.667 6.667s-2.985 6.667-6.667 6.667c-3.682 0-6.667-2.985-6.667-6.667s2.985-6.667 6.667-6.667z"></path>
</symbol>

<symbol id="icon-plus" viewBox="0 0 32 32">
<path fill="none" stroke="#fcfbfb" style="stroke: var(--color1, #fcfbfb)" stroke-linejoin="round" stroke-linecap="round" stroke-miterlimit="4" stroke-width="1.6471" d="M0.927 16.161l30.021-0.349M16.111 31.111l-0.347-30.248"></path>
</symbol>
</defs>
</svg>
