<svg width="32" height="33" viewBox="0 0 32 33" fill="none" xmlns="http://www.w3.org/2000/svg">
<path d="M2.66675 16.5002C2.66675 16.0402 3.04008 15.6669 3.50008 15.6669L25.1307 15.6669L16.5827 7.26022C16.5011 7.18438 16.4355 7.09295 16.3899 6.99132C16.3442 6.8897 16.3194 6.77995 16.3169 6.66857C16.3144 6.55718 16.3342 6.44642 16.3752 6.34284C16.4163 6.23926 16.4776 6.14495 16.5558 6.06551C16.6339 5.98606 16.7271 5.92308 16.83 5.8803C16.9329 5.83752 17.0433 5.81579 17.1547 5.81642C17.2661 5.81705 17.3762 5.84 17.4786 5.88394C17.581 5.92788 17.6735 5.9919 17.7507 6.07222L27.7427 15.8982L27.7607 15.9156C27.8473 16.0032 27.9133 16.1091 27.9539 16.2254C27.9945 16.3418 28.0087 16.4657 27.9954 16.5882C27.9745 16.7887 27.8814 16.9747 27.7334 17.1116L17.7507 26.9276C17.6735 27.0079 17.581 27.0719 17.4786 27.1158C17.3762 27.1598 17.2661 27.1827 17.1547 27.1833C17.0433 27.184 16.9329 27.1623 16.83 27.1195C16.7271 27.0767 16.6339 27.0137 16.5558 26.9343C16.4776 26.8548 16.4163 26.7605 16.3752 26.6569C16.3342 26.5533 16.3144 26.4426 16.3169 26.3312C16.3194 26.2198 16.3442 26.1101 16.3899 26.0084C16.4355 25.9068 16.5011 25.8154 16.5827 25.7396L25.1307 17.3329H3.50008C3.04008 17.3329 2.66675 16.9609 2.66675 16.5002Z" fill="#BC0000"/>
</svg>
