<svg width="17" height="34" viewBox="0 0 17 34" fill="none" xmlns="http://www.w3.org/2000/svg">
<path d="M0.456846 30.8847C0.310915 31.0421 0.196829 31.2273 0.121103 31.4297C0.0453777 31.6321 0.00949287 31.8477 0.015501 32.0642C0.0215092 32.2807 0.0692921 32.4939 0.156118 32.6916C0.242947 32.8893 0.367119 33.0676 0.521547 33.2164C0.675976 33.3652 0.857637 33.4815 1.05616 33.5587C1.25467 33.6359 1.46616 33.6725 1.67855 33.6663C1.89094 33.6602 2.10006 33.6115 2.29398 33.523C2.4879 33.4345 2.66282 33.3079 2.80875 33.1504L16.5579 18.3091C16.8418 18.003 17 17.5976 17 17.1763C17 16.7549 16.8418 16.3495 16.5579 16.0434L2.80875 1.20044C2.66378 1.03955 2.4889 0.909637 2.29427 0.818241C2.09964 0.726845 1.88913 0.675785 1.67498 0.66803C1.46082 0.660275 1.24729 0.695976 1.04679 0.77306C0.846281 0.850143 0.662798 0.967075 0.506994 1.11706C0.351192 1.26705 0.226175 1.4471 0.139206 1.64676C0.0522366 1.84642 0.00504875 2.06171 0.000383377 2.28012C-0.004282 2.49853 0.0336666 2.7157 0.112026 2.91903C0.190388 3.12236 0.307596 3.30779 0.456846 3.46455L13.1578 17.1763L0.456846 30.8847Z" fill="#BC0000"/>
</svg>
