<svg width="17" height="34" viewBox="0 0 17 34" fill="none" xmlns="http://www.w3.org/2000/svg">
<path d="M16.5432 30.8847C16.6891 31.0421 16.8032 31.2273 16.8789 31.4297C16.9546 31.6321 16.9905 31.8477 16.9845 32.0642C16.9785 32.2807 16.9307 32.4939 16.8439 32.6916C16.7571 32.8893 16.6329 33.0676 16.4785 33.2164C16.324 33.3652 16.1424 33.4815 15.9438 33.5587C15.7453 33.6359 15.5338 33.6725 15.3215 33.6663C15.1091 33.6602 14.8999 33.6115 14.706 33.523C14.5121 33.4345 14.3372 33.3079 14.1912 33.1504L0.442143 18.3091C0.158206 18.003 0 17.5976 0 17.1763C0 16.7549 0.158206 16.3495 0.442143 16.0434L14.1912 1.20044C14.3362 1.03955 14.5111 0.909637 14.7057 0.818241C14.9004 0.726845 15.1109 0.675785 15.325 0.66803C15.5392 0.660275 15.7527 0.695976 15.9532 0.77306C16.1537 0.850143 16.3372 0.967075 16.493 1.11706C16.6488 1.26705 16.7738 1.4471 16.8608 1.64676C16.9478 1.84642 16.995 2.06171 16.9996 2.28012C17.0043 2.49853 16.9663 2.7157 16.888 2.91903C16.8096 3.12236 16.6924 3.30779 16.5432 3.46455L3.84222 17.1763L16.5432 30.8847Z" fill="#BC0000"/>
</svg>
